<mxfile host="app.diagrams.net" agent="Mozilla/5.0 (Macintosh; Intel Mac OS X 10_15_7) AppleWebKit/537.36 (KHTML, like Gecko) Chrome/137.0.0.0 Safari/537.36" version="27.2.0" pages="3">
  <diagram name="Software Design" id="K9SmWCTvPaJMFEUUwZNo">
    <mxGraphModel dx="1426" dy="1110" grid="1" gridSize="10" guides="1" tooltips="1" connect="1" arrows="1" fold="1" page="0" pageScale="1" pageWidth="850" pageHeight="1100" math="0" shadow="0">
      <root>
        <mxCell id="0" />
        <mxCell id="1" parent="0" />
        <mxCell id="cavM_B3F_ChjkOdUWtLr-21" value="" style="ellipse;whiteSpace=wrap;html=1;aspect=fixed;rounded=1;strokeColor=default;align=center;verticalAlign=middle;fontFamily=Fira Sans;fontSource=https%3A%2F%2Ffonts.googleapis.com%2Fcss%3Ffamily%3DFira%2BSans;fontSize=12;fontColor=default;fillColor=default;" vertex="1" parent="1">
          <mxGeometry x="207.5" y="240" width="280" height="280" as="geometry" />
        </mxCell>
        <mxCell id="cavM_B3F_ChjkOdUWtLr-22" value="" style="ellipse;whiteSpace=wrap;html=1;aspect=fixed;rounded=1;strokeColor=default;align=center;verticalAlign=middle;fontFamily=Fira Sans;fontSource=https%3A%2F%2Ffonts.googleapis.com%2Fcss%3Ffamily%3DFira%2BSans;fontSize=12;fontColor=default;fillColor=default;" vertex="1" parent="1">
          <mxGeometry x="260" y="-20" width="175" height="175" as="geometry" />
        </mxCell>
        <mxCell id="cavM_B3F_ChjkOdUWtLr-23" value="Service&lt;div&gt;(IPC)&lt;/div&gt;" style="ellipse;whiteSpace=wrap;html=1;aspect=fixed;rounded=1;strokeColor=default;align=center;verticalAlign=middle;fontFamily=Fira Sans;fontSource=https%3A%2F%2Ffonts.googleapis.com%2Fcss%3Ffamily%3DFira%2BSans;fontSize=12;fontColor=default;fillColor=default;fontStyle=1" vertex="1" parent="1">
          <mxGeometry x="410" y="40" width="55" height="55" as="geometry" />
        </mxCell>
        <mxCell id="cavM_B3F_ChjkOdUWtLr-35" style="edgeStyle=orthogonalEdgeStyle;rounded=0;orthogonalLoop=1;jettySize=auto;html=1;entryX=0.5;entryY=0;entryDx=0;entryDy=0;fontFamily=Fira Sans;fontSource=https%3A%2F%2Ffonts.googleapis.com%2Fcss%3Ffamily%3DFira%2BSans;fontSize=12;fontColor=default;startArrow=classic;startFill=1;" edge="1" parent="1" source="cavM_B3F_ChjkOdUWtLr-24" target="cavM_B3F_ChjkOdUWtLr-21">
          <mxGeometry relative="1" as="geometry" />
        </mxCell>
        <mxCell id="cavM_B3F_ChjkOdUWtLr-24" value="Handler" style="ellipse;whiteSpace=wrap;html=1;aspect=fixed;rounded=1;strokeColor=default;align=center;verticalAlign=middle;fontFamily=Fira Sans;fontSource=https%3A%2F%2Ffonts.googleapis.com%2Fcss%3Ffamily%3DFira%2BSans;fontSize=12;fontColor=default;fillColor=default;fontStyle=1" vertex="1" parent="1">
          <mxGeometry x="320" y="135" width="55" height="55" as="geometry" />
        </mxCell>
        <mxCell id="cavM_B3F_ChjkOdUWtLr-25" value="Command" style="ellipse;whiteSpace=wrap;html=1;aspect=fixed;rounded=1;strokeColor=default;align=center;verticalAlign=middle;fontFamily=Fira Sans;fontSource=https%3A%2F%2Ffonts.googleapis.com%2Fcss%3Ffamily%3DFira%2BSans;fontSize=10;fontColor=default;fillColor=default;" vertex="1" parent="1">
          <mxGeometry x="280" y="5" width="60" height="60" as="geometry" />
        </mxCell>
        <mxCell id="cavM_B3F_ChjkOdUWtLr-26" value="Domain" style="ellipse;whiteSpace=wrap;html=1;aspect=fixed;rounded=1;strokeColor=default;align=center;verticalAlign=middle;fontFamily=Fira Sans;fontSource=https%3A%2F%2Ffonts.googleapis.com%2Fcss%3Ffamily%3DFira%2BSans;fontSize=10;fontColor=default;fillColor=default;" vertex="1" parent="1">
          <mxGeometry x="280" y="65" width="60" height="60" as="geometry" />
        </mxCell>
        <mxCell id="cavM_B3F_ChjkOdUWtLr-27" value="Query" style="ellipse;whiteSpace=wrap;html=1;aspect=fixed;rounded=1;strokeColor=default;align=center;verticalAlign=middle;fontFamily=Fira Sans;fontSource=https%3A%2F%2Ffonts.googleapis.com%2Fcss%3Ffamily%3DFira%2BSans;fontSize=10;fontColor=default;fillColor=default;" vertex="1" parent="1">
          <mxGeometry x="340" y="5" width="60" height="60" as="geometry" />
        </mxCell>
        <mxCell id="cavM_B3F_ChjkOdUWtLr-28" value="" style="ellipse;whiteSpace=wrap;html=1;aspect=fixed;rounded=1;strokeColor=default;align=center;verticalAlign=middle;fontFamily=Fira Sans;fontSource=https%3A%2F%2Ffonts.googleapis.com%2Fcss%3Ffamily%3DFira%2BSans;fontSize=12;fontColor=default;fillColor=default;" vertex="1" parent="1">
          <mxGeometry x="580" y="292.5" width="175" height="175" as="geometry" />
        </mxCell>
        <mxCell id="cavM_B3F_ChjkOdUWtLr-29" value="Service&lt;div&gt;(IPC)&lt;/div&gt;" style="ellipse;whiteSpace=wrap;html=1;aspect=fixed;rounded=1;strokeColor=default;align=center;verticalAlign=middle;fontFamily=Fira Sans;fontSource=https%3A%2F%2Ffonts.googleapis.com%2Fcss%3Ffamily%3DFira%2BSans;fontSize=12;fontColor=default;fillColor=default;fontStyle=1" vertex="1" parent="1">
          <mxGeometry x="730" y="352.5" width="55" height="55" as="geometry" />
        </mxCell>
        <mxCell id="cavM_B3F_ChjkOdUWtLr-34" style="edgeStyle=orthogonalEdgeStyle;rounded=0;orthogonalLoop=1;jettySize=auto;html=1;entryX=1;entryY=0.5;entryDx=0;entryDy=0;fontFamily=Fira Sans;fontSource=https%3A%2F%2Ffonts.googleapis.com%2Fcss%3Ffamily%3DFira%2BSans;fontSize=12;fontColor=default;exitX=0.5;exitY=0;exitDx=0;exitDy=0;curved=1;" edge="1" parent="1" source="cavM_B3F_ChjkOdUWtLr-30" target="cavM_B3F_ChjkOdUWtLr-23">
          <mxGeometry relative="1" as="geometry" />
        </mxCell>
        <mxCell id="cavM_B3F_ChjkOdUWtLr-36" style="edgeStyle=orthogonalEdgeStyle;rounded=0;orthogonalLoop=1;jettySize=auto;html=1;entryX=1;entryY=0.5;entryDx=0;entryDy=0;fontFamily=Fira Sans;fontSource=https%3A%2F%2Ffonts.googleapis.com%2Fcss%3Ffamily%3DFira%2BSans;fontSize=12;fontColor=default;" edge="1" parent="1" source="cavM_B3F_ChjkOdUWtLr-30" target="cavM_B3F_ChjkOdUWtLr-21">
          <mxGeometry relative="1" as="geometry" />
        </mxCell>
        <mxCell id="cavM_B3F_ChjkOdUWtLr-30" value="Handler" style="ellipse;whiteSpace=wrap;html=1;aspect=fixed;rounded=1;strokeColor=default;align=center;verticalAlign=middle;fontFamily=Fira Sans;fontSource=https%3A%2F%2Ffonts.googleapis.com%2Fcss%3Ffamily%3DFira%2BSans;fontSize=12;fontColor=default;fillColor=default;fontStyle=1" vertex="1" parent="1">
          <mxGeometry x="550" y="352.5" width="55" height="55" as="geometry" />
        </mxCell>
        <mxCell id="cavM_B3F_ChjkOdUWtLr-31" value="Command" style="ellipse;whiteSpace=wrap;html=1;aspect=fixed;rounded=1;strokeColor=default;align=center;verticalAlign=middle;fontFamily=Fira Sans;fontSource=https%3A%2F%2Ffonts.googleapis.com%2Fcss%3Ffamily%3DFira%2BSans;fontSize=10;fontColor=default;fillColor=default;" vertex="1" parent="1">
          <mxGeometry x="610" y="320" width="60" height="60" as="geometry" />
        </mxCell>
        <mxCell id="cavM_B3F_ChjkOdUWtLr-32" value="Domain" style="ellipse;whiteSpace=wrap;html=1;aspect=fixed;rounded=1;strokeColor=default;align=center;verticalAlign=middle;fontFamily=Fira Sans;fontSource=https%3A%2F%2Ffonts.googleapis.com%2Fcss%3Ffamily%3DFira%2BSans;fontSize=10;fontColor=default;fillColor=default;" vertex="1" parent="1">
          <mxGeometry x="670" y="380" width="60" height="60" as="geometry" />
        </mxCell>
        <mxCell id="cavM_B3F_ChjkOdUWtLr-33" value="Query" style="ellipse;whiteSpace=wrap;html=1;aspect=fixed;rounded=1;strokeColor=default;align=center;verticalAlign=middle;fontFamily=Fira Sans;fontSource=https%3A%2F%2Ffonts.googleapis.com%2Fcss%3Ffamily%3DFira%2BSans;fontSize=10;fontColor=default;fillColor=default;" vertex="1" parent="1">
          <mxGeometry x="670" y="320" width="60" height="60" as="geometry" />
        </mxCell>
        <mxCell id="cavM_B3F_ChjkOdUWtLr-37" value="DB" style="shape=cylinder3;whiteSpace=wrap;html=1;boundedLbl=1;backgroundOutline=1;size=10;rounded=1;strokeColor=default;align=center;verticalAlign=middle;fontFamily=Fira Sans;fontSource=https%3A%2F%2Ffonts.googleapis.com%2Fcss%3Ffamily%3DFira%2BSans;fontSize=12;fontColor=default;fillColor=default;" vertex="1" parent="1">
          <mxGeometry x="355" y="75" width="30" height="40" as="geometry" />
        </mxCell>
        <mxCell id="cavM_B3F_ChjkOdUWtLr-38" value="DB" style="shape=cylinder3;whiteSpace=wrap;html=1;boundedLbl=1;backgroundOutline=1;size=10;rounded=1;strokeColor=default;align=center;verticalAlign=middle;fontFamily=Fira Sans;fontSource=https%3A%2F%2Ffonts.googleapis.com%2Fcss%3Ffamily%3DFira%2BSans;fontSize=12;fontColor=default;fillColor=default;" vertex="1" parent="1">
          <mxGeometry x="625" y="390" width="30" height="40" as="geometry" />
        </mxCell>
        <mxCell id="cavM_B3F_ChjkOdUWtLr-39" value="Kafka" style="shape=cylinder3;whiteSpace=wrap;html=1;boundedLbl=1;backgroundOutline=1;size=15;rounded=1;strokeColor=default;align=center;verticalAlign=middle;fontFamily=Fira Sans;fontSource=https%3A%2F%2Ffonts.googleapis.com%2Fcss%3Ffamily%3DFira%2BSans;fontSize=12;fontColor=default;fillColor=default;rotation=90;horizontal=0;" vertex="1" parent="1">
          <mxGeometry x="317.5" y="260" width="60" height="130" as="geometry" />
        </mxCell>
        <mxCell id="cavM_B3F_ChjkOdUWtLr-40" value="Redis" style="shape=cylinder3;whiteSpace=wrap;html=1;boundedLbl=1;backgroundOutline=1;size=15;rounded=1;strokeColor=default;align=center;verticalAlign=middle;fontFamily=Fira Sans;fontSource=https%3A%2F%2Ffonts.googleapis.com%2Fcss%3Ffamily%3DFira%2BSans;fontSize=12;fontColor=default;fillColor=default;" vertex="1" parent="1">
          <mxGeometry x="280" y="370" width="60" height="80" as="geometry" />
        </mxCell>
        <mxCell id="cavM_B3F_ChjkOdUWtLr-41" value="Vault" style="shape=cylinder3;whiteSpace=wrap;html=1;boundedLbl=1;backgroundOutline=1;size=15;rounded=1;strokeColor=default;align=center;verticalAlign=middle;fontFamily=Fira Sans;fontSource=https%3A%2F%2Ffonts.googleapis.com%2Fcss%3Ffamily%3DFira%2BSans;fontSize=12;fontColor=default;fillColor=default;" vertex="1" parent="1">
          <mxGeometry x="355" y="370" width="60" height="80" as="geometry" />
        </mxCell>
      </root>
    </mxGraphModel>
  </diagram>
  <diagram id="6v0OdKa0rEuVm_NMGPjB" name="Architecture">
    <mxGraphModel dx="1192" dy="394" grid="1" gridSize="10" guides="1" tooltips="1" connect="1" arrows="1" fold="1" page="0" pageScale="1" pageWidth="850" pageHeight="1100" math="0" shadow="0">
      <root>
        <mxCell id="0" />
        <mxCell id="1" parent="0" />
        <mxCell id="1X3hgix-6cPO0WC9A7_W-1" value="Participant" style="ellipse;whiteSpace=wrap;html=1;aspect=fixed;rounded=1;strokeColor=default;align=center;verticalAlign=middle;fontFamily=Fira Sans;fontSource=https%3A%2F%2Ffonts.googleapis.com%2Fcss%3Ffamily%3DFira%2BSans;fontSize=12;fontColor=default;fillColor=default;" vertex="1" parent="1">
          <mxGeometry x="280" y="160" width="80" height="80" as="geometry" />
        </mxCell>
        <mxCell id="OaSU8CwJEgJAr7OzBbM7-1" value="IIPS&lt;div&gt;Gateway&lt;/div&gt;" style="ellipse;whiteSpace=wrap;html=1;aspect=fixed;rounded=1;strokeColor=default;align=center;verticalAlign=top;fontFamily=Fira Sans;fontSource=https%3A%2F%2Ffonts.googleapis.com%2Fcss%3Ffamily%3DFira%2BSans;fontSize=12;fontColor=default;labelBackgroundColor=default;fillColor=default;fontStyle=1" vertex="1" parent="1">
          <mxGeometry x="-5" y="240" width="210" height="210" as="geometry" />
        </mxCell>
        <mxCell id="OaSU8CwJEgJAr7OzBbM7-2" value="FSPIOP" style="ellipse;whiteSpace=wrap;html=1;aspect=fixed;rounded=1;strokeColor=default;align=center;verticalAlign=middle;fontFamily=Fira Sans;fontSource=https%3A%2F%2Ffonts.googleapis.com%2Fcss%3Ffamily%3DFira%2BSans;fontSize=12;fontColor=default;labelBackgroundColor=default;fillColor=default;" vertex="1" parent="1">
          <mxGeometry x="20" y="320" width="70" height="70" as="geometry" />
        </mxCell>
        <mxCell id="OaSU8CwJEgJAr7OzBbM7-3" value="ISO20022" style="ellipse;whiteSpace=wrap;html=1;aspect=fixed;rounded=1;strokeColor=default;align=center;verticalAlign=middle;fontFamily=Fira Sans;fontSource=https%3A%2F%2Ffonts.googleapis.com%2Fcss%3Ffamily%3DFira%2BSans;fontSize=12;fontColor=default;labelBackgroundColor=default;fillColor=default;" vertex="1" parent="1">
          <mxGeometry x="110" y="320" width="70" height="70" as="geometry" />
        </mxCell>
        <mxCell id="OaSU8CwJEgJAr7OzBbM7-5" style="edgeStyle=orthogonalEdgeStyle;shape=connector;rounded=0;orthogonalLoop=1;jettySize=auto;html=1;entryX=0;entryY=0.5;entryDx=0;entryDy=0;strokeColor=default;align=center;verticalAlign=middle;fontFamily=Fira Sans;fontSource=https%3A%2F%2Ffonts.googleapis.com%2Fcss%3Ffamily%3DFira%2BSans;fontSize=12;fontColor=default;labelBackgroundColor=default;startArrow=open;startFill=0;endArrow=open;endFill=0;" edge="1" parent="1" source="OaSU8CwJEgJAr7OzBbM7-4" target="OaSU8CwJEgJAr7OzBbM7-1">
          <mxGeometry relative="1" as="geometry" />
        </mxCell>
        <mxCell id="OaSU8CwJEgJAr7OzBbM7-4" value="DFSP&lt;div&gt;(Payer/Payee)&lt;/div&gt;" style="ellipse;whiteSpace=wrap;html=1;rounded=1;strokeColor=default;align=center;verticalAlign=middle;fontFamily=Fira Sans;fontSource=https%3A%2F%2Ffonts.googleapis.com%2Fcss%3Ffamily%3DFira%2BSans;fontSize=12;fontColor=default;labelBackgroundColor=default;fillColor=default;" vertex="1" parent="1">
          <mxGeometry x="-210" y="305" width="120" height="80" as="geometry" />
        </mxCell>
        <mxCell id="OaSU8CwJEgJAr7OzBbM7-7" value="Event Bus&lt;div&gt;(Kafka)&lt;/div&gt;" style="shape=cylinder3;whiteSpace=wrap;html=1;boundedLbl=1;backgroundOutline=1;size=15;rounded=1;strokeColor=default;align=center;verticalAlign=middle;fontFamily=Fira Sans;fontSource=https%3A%2F%2Ffonts.googleapis.com%2Fcss%3Ffamily%3DFira%2BSans;fontSize=12;fontColor=default;labelBackgroundColor=default;fillColor=default;rotation=90;horizontal=0;fontStyle=1" vertex="1" parent="1">
          <mxGeometry x="413.75" y="183.75" width="66.25" height="322.5" as="geometry" />
        </mxCell>
        <mxCell id="OaSU8CwJEgJAr7OzBbM7-8" style="edgeStyle=orthogonalEdgeStyle;shape=connector;rounded=0;orthogonalLoop=1;jettySize=auto;html=1;entryX=0.5;entryY=1;entryDx=0;entryDy=0;entryPerimeter=0;strokeColor=default;align=center;verticalAlign=middle;fontFamily=Fira Sans;fontSource=https%3A%2F%2Ffonts.googleapis.com%2Fcss%3Ffamily%3DFira%2BSans;fontSize=12;fontColor=default;labelBackgroundColor=default;startArrow=none;startFill=0;endArrow=open;endFill=0;" edge="1" parent="1" source="OaSU8CwJEgJAr7OzBbM7-1" target="OaSU8CwJEgJAr7OzBbM7-7">
          <mxGeometry relative="1" as="geometry" />
        </mxCell>
        <mxCell id="OaSU8CwJEgJAr7OzBbM7-10" value="Account" style="ellipse;whiteSpace=wrap;html=1;aspect=fixed;rounded=1;strokeColor=default;align=center;verticalAlign=middle;fontFamily=Fira Sans;fontSource=https%3A%2F%2Ffonts.googleapis.com%2Fcss%3Ffamily%3DFira%2BSans;fontSize=12;fontColor=default;fillColor=default;" vertex="1" parent="1">
          <mxGeometry x="380" y="160" width="80" height="80" as="geometry" />
        </mxCell>
        <mxCell id="OaSU8CwJEgJAr7OzBbM7-11" value="Quoting" style="ellipse;whiteSpace=wrap;html=1;aspect=fixed;rounded=1;strokeColor=default;align=center;verticalAlign=middle;fontFamily=Fira Sans;fontSource=https%3A%2F%2Ffonts.googleapis.com%2Fcss%3Ffamily%3DFira%2BSans;fontSize=12;fontColor=default;fillColor=default;" vertex="1" parent="1">
          <mxGeometry x="480" y="160" width="80" height="80" as="geometry" />
        </mxCell>
        <mxCell id="OaSU8CwJEgJAr7OzBbM7-12" value="Transfer" style="ellipse;whiteSpace=wrap;html=1;aspect=fixed;rounded=1;strokeColor=default;align=center;verticalAlign=middle;fontFamily=Fira Sans;fontSource=https%3A%2F%2Ffonts.googleapis.com%2Fcss%3Ffamily%3DFira%2BSans;fontSize=12;fontColor=default;fillColor=default;" vertex="1" parent="1">
          <mxGeometry x="280" y="450" width="80" height="80" as="geometry" />
        </mxCell>
        <mxCell id="OaSU8CwJEgJAr7OzBbM7-13" value="Settlement" style="ellipse;whiteSpace=wrap;html=1;aspect=fixed;rounded=1;strokeColor=default;align=center;verticalAlign=middle;fontFamily=Fira Sans;fontSource=https%3A%2F%2Ffonts.googleapis.com%2Fcss%3Ffamily%3DFira%2BSans;fontSize=12;fontColor=default;fillColor=default;" vertex="1" parent="1">
          <mxGeometry x="380" y="450" width="80" height="80" as="geometry" />
        </mxCell>
        <mxCell id="OaSU8CwJEgJAr7OzBbM7-14" value="Transaction" style="ellipse;whiteSpace=wrap;html=1;aspect=fixed;rounded=1;strokeColor=default;align=center;verticalAlign=middle;fontFamily=Fira Sans;fontSource=https%3A%2F%2Ffonts.googleapis.com%2Fcss%3Ffamily%3DFira%2BSans;fontSize=12;fontColor=default;fillColor=default;" vertex="1" parent="1">
          <mxGeometry x="480" y="450" width="80" height="80" as="geometry" />
        </mxCell>
        <mxCell id="OaSU8CwJEgJAr7OzBbM7-15" value="" style="endArrow=open;startArrow=open;html=1;rounded=0;strokeColor=default;align=center;verticalAlign=middle;fontFamily=Fira Sans;fontSource=https%3A%2F%2Ffonts.googleapis.com%2Fcss%3Ffamily%3DFira%2BSans;fontSize=12;fontColor=default;labelBackgroundColor=default;startFill=0;endFill=0;" edge="1" parent="1">
          <mxGeometry width="50" height="50" relative="1" as="geometry">
            <mxPoint x="180" y="130" as="sourcePoint" />
            <mxPoint x="180" y="60" as="targetPoint" />
          </mxGeometry>
        </mxCell>
        <mxCell id="OaSU8CwJEgJAr7OzBbM7-16" value="" style="endArrow=open;startArrow=open;html=1;rounded=0;strokeColor=default;align=center;verticalAlign=middle;fontFamily=Fira Sans;fontSource=https%3A%2F%2Ffonts.googleapis.com%2Fcss%3Ffamily%3DFira%2BSans;fontSize=12;fontColor=default;labelBackgroundColor=default;startFill=0;endFill=0;" edge="1" parent="1">
          <mxGeometry width="50" height="50" relative="1" as="geometry">
            <mxPoint x="319.5" y="310" as="sourcePoint" />
            <mxPoint x="319.5" y="240" as="targetPoint" />
          </mxGeometry>
        </mxCell>
        <mxCell id="OaSU8CwJEgJAr7OzBbM7-17" value="" style="endArrow=open;startArrow=open;html=1;rounded=0;strokeColor=default;align=center;verticalAlign=middle;fontFamily=Fira Sans;fontSource=https%3A%2F%2Ffonts.googleapis.com%2Fcss%3Ffamily%3DFira%2BSans;fontSize=12;fontColor=default;labelBackgroundColor=default;startFill=0;endFill=0;" edge="1" parent="1">
          <mxGeometry width="50" height="50" relative="1" as="geometry">
            <mxPoint x="419.5" y="310" as="sourcePoint" />
            <mxPoint x="419.5" y="240" as="targetPoint" />
          </mxGeometry>
        </mxCell>
        <mxCell id="OaSU8CwJEgJAr7OzBbM7-18" value="" style="endArrow=open;startArrow=open;html=1;rounded=0;strokeColor=default;align=center;verticalAlign=middle;fontFamily=Fira Sans;fontSource=https%3A%2F%2Ffonts.googleapis.com%2Fcss%3Ffamily%3DFira%2BSans;fontSize=12;fontColor=default;labelBackgroundColor=default;startFill=0;endFill=0;" edge="1" parent="1">
          <mxGeometry width="50" height="50" relative="1" as="geometry">
            <mxPoint x="519.5" y="310" as="sourcePoint" />
            <mxPoint x="519.5" y="240" as="targetPoint" />
          </mxGeometry>
        </mxCell>
        <mxCell id="OaSU8CwJEgJAr7OzBbM7-19" value="" style="endArrow=open;startArrow=open;html=1;rounded=0;strokeColor=default;align=center;verticalAlign=middle;fontFamily=Fira Sans;fontSource=https%3A%2F%2Ffonts.googleapis.com%2Fcss%3Ffamily%3DFira%2BSans;fontSize=12;fontColor=default;labelBackgroundColor=default;startFill=0;endFill=0;" edge="1" parent="1">
          <mxGeometry width="50" height="50" relative="1" as="geometry">
            <mxPoint x="319.72" y="450" as="sourcePoint" />
            <mxPoint x="319.72" y="380" as="targetPoint" />
          </mxGeometry>
        </mxCell>
        <mxCell id="OaSU8CwJEgJAr7OzBbM7-20" value="" style="endArrow=open;startArrow=open;html=1;rounded=0;strokeColor=default;align=center;verticalAlign=middle;fontFamily=Fira Sans;fontSource=https%3A%2F%2Ffonts.googleapis.com%2Fcss%3Ffamily%3DFira%2BSans;fontSize=12;fontColor=default;labelBackgroundColor=default;startFill=0;endFill=0;" edge="1" parent="1">
          <mxGeometry width="50" height="50" relative="1" as="geometry">
            <mxPoint x="419.72" y="450" as="sourcePoint" />
            <mxPoint x="419.72" y="380" as="targetPoint" />
          </mxGeometry>
        </mxCell>
        <mxCell id="OaSU8CwJEgJAr7OzBbM7-21" value="" style="endArrow=open;startArrow=open;html=1;rounded=0;strokeColor=default;align=center;verticalAlign=middle;fontFamily=Fira Sans;fontSource=https%3A%2F%2Ffonts.googleapis.com%2Fcss%3Ffamily%3DFira%2BSans;fontSize=12;fontColor=default;labelBackgroundColor=default;startFill=0;endFill=0;" edge="1" parent="1">
          <mxGeometry width="50" height="50" relative="1" as="geometry">
            <mxPoint x="519.72" y="450" as="sourcePoint" />
            <mxPoint x="519.72" y="380" as="targetPoint" />
          </mxGeometry>
        </mxCell>
      </root>
    </mxGraphModel>
  </diagram>
  <diagram id="trciOFP74JbbWXvL6SP_" name="Page-3">
    <mxGraphModel dx="1826" dy="710" grid="1" gridSize="10" guides="1" tooltips="1" connect="1" arrows="1" fold="1" page="0" pageScale="1" pageWidth="850" pageHeight="1100" math="0" shadow="0">
      <root>
        <mxCell id="0" />
        <mxCell id="1" parent="0" />
        <mxCell id="jizsMmq97p4V-0ucGMLW-28" style="edgeStyle=orthogonalEdgeStyle;rounded=0;orthogonalLoop=1;jettySize=auto;html=1;entryX=0;entryY=0.5;entryDx=0;entryDy=0;" edge="1" parent="1" source="jizsMmq97p4V-0ucGMLW-1" target="jizsMmq97p4V-0ucGMLW-27">
          <mxGeometry relative="1" as="geometry" />
        </mxCell>
        <mxCell id="jizsMmq97p4V-0ucGMLW-1" value="Hub" style="rounded=1;whiteSpace=wrap;html=1;" vertex="1" parent="1">
          <mxGeometry x="290" y="160" width="120" height="60" as="geometry" />
        </mxCell>
        <mxCell id="jizsMmq97p4V-0ucGMLW-24" style="edgeStyle=orthogonalEdgeStyle;rounded=0;orthogonalLoop=1;jettySize=auto;html=1;entryX=0.5;entryY=0;entryDx=0;entryDy=0;" edge="1" parent="1" source="jizsMmq97p4V-0ucGMLW-2" target="jizsMmq97p4V-0ucGMLW-23">
          <mxGeometry relative="1" as="geometry" />
        </mxCell>
        <mxCell id="jizsMmq97p4V-0ucGMLW-2" value="private" style="rounded=1;whiteSpace=wrap;html=1;" vertex="1" parent="1">
          <mxGeometry x="290" y="240" width="120" height="20" as="geometry" />
        </mxCell>
        <mxCell id="jizsMmq97p4V-0ucGMLW-3" value="public" style="rounded=1;whiteSpace=wrap;html=1;" vertex="1" parent="1">
          <mxGeometry x="290" y="260" width="120" height="20" as="geometry" />
        </mxCell>
        <mxCell id="jizsMmq97p4V-0ucGMLW-29" style="edgeStyle=orthogonalEdgeStyle;rounded=0;orthogonalLoop=1;jettySize=auto;html=1;entryX=0;entryY=0.5;entryDx=0;entryDy=0;" edge="1" parent="1" source="jizsMmq97p4V-0ucGMLW-4" target="jizsMmq97p4V-0ucGMLW-25">
          <mxGeometry relative="1" as="geometry" />
        </mxCell>
        <mxCell id="jizsMmq97p4V-0ucGMLW-4" value="Wallet1" style="rounded=1;whiteSpace=wrap;html=1;" vertex="1" parent="1">
          <mxGeometry x="-230" y="260" width="120" height="60" as="geometry" />
        </mxCell>
        <mxCell id="jizsMmq97p4V-0ucGMLW-5" value="private" style="rounded=1;whiteSpace=wrap;html=1;" vertex="1" parent="1">
          <mxGeometry x="-230" y="340" width="120" height="20" as="geometry" />
        </mxCell>
        <mxCell id="jizsMmq97p4V-0ucGMLW-22" style="edgeStyle=orthogonalEdgeStyle;rounded=0;orthogonalLoop=1;jettySize=auto;html=1;entryX=0;entryY=0.5;entryDx=0;entryDy=0;exitX=1;exitY=0.5;exitDx=0;exitDy=0;" edge="1" parent="1" source="jizsMmq97p4V-0ucGMLW-5" target="jizsMmq97p4V-0ucGMLW-21">
          <mxGeometry relative="1" as="geometry" />
        </mxCell>
        <mxCell id="jizsMmq97p4V-0ucGMLW-6" value="public" style="rounded=1;whiteSpace=wrap;html=1;" vertex="1" parent="1">
          <mxGeometry x="-230" y="360" width="120" height="20" as="geometry" />
        </mxCell>
        <mxCell id="jizsMmq97p4V-0ucGMLW-7" value="" style="rounded=1;whiteSpace=wrap;html=1;" vertex="1" parent="1">
          <mxGeometry x="-230" y="400" width="120" height="100" as="geometry" />
        </mxCell>
        <mxCell id="jizsMmq97p4V-0ucGMLW-8" value="public w2" style="rounded=1;whiteSpace=wrap;html=1;" vertex="1" parent="1">
          <mxGeometry x="-220" y="410" width="100" height="20" as="geometry" />
        </mxCell>
        <mxCell id="jizsMmq97p4V-0ucGMLW-9" value="public w3" style="rounded=1;whiteSpace=wrap;html=1;" vertex="1" parent="1">
          <mxGeometry x="-220" y="430" width="100" height="20" as="geometry" />
        </mxCell>
        <mxCell id="jizsMmq97p4V-0ucGMLW-10" value="switch" style="rounded=1;whiteSpace=wrap;html=1;" vertex="1" parent="1">
          <mxGeometry x="-220" y="450" width="100" height="20" as="geometry" />
        </mxCell>
        <mxCell id="jizsMmq97p4V-0ucGMLW-11" value="Wallet2" style="rounded=1;whiteSpace=wrap;html=1;" vertex="1" parent="1">
          <mxGeometry x="620" y="260" width="120" height="60" as="geometry" />
        </mxCell>
        <mxCell id="jizsMmq97p4V-0ucGMLW-20" style="edgeStyle=orthogonalEdgeStyle;rounded=0;orthogonalLoop=1;jettySize=auto;html=1;entryX=1;entryY=0.5;entryDx=0;entryDy=0;" edge="1" parent="1" source="jizsMmq97p4V-0ucGMLW-12" target="jizsMmq97p4V-0ucGMLW-19">
          <mxGeometry relative="1" as="geometry" />
        </mxCell>
        <mxCell id="jizsMmq97p4V-0ucGMLW-12" value="private" style="rounded=1;whiteSpace=wrap;html=1;" vertex="1" parent="1">
          <mxGeometry x="620" y="340" width="120" height="20" as="geometry" />
        </mxCell>
        <mxCell id="jizsMmq97p4V-0ucGMLW-13" value="public" style="rounded=1;whiteSpace=wrap;html=1;" vertex="1" parent="1">
          <mxGeometry x="620" y="360" width="120" height="20" as="geometry" />
        </mxCell>
        <mxCell id="jizsMmq97p4V-0ucGMLW-14" value="" style="rounded=1;whiteSpace=wrap;html=1;" vertex="1" parent="1">
          <mxGeometry x="620" y="400" width="120" height="100" as="geometry" />
        </mxCell>
        <mxCell id="jizsMmq97p4V-0ucGMLW-15" value="public w1" style="rounded=1;whiteSpace=wrap;html=1;" vertex="1" parent="1">
          <mxGeometry x="630" y="410" width="100" height="20" as="geometry" />
        </mxCell>
        <mxCell id="jizsMmq97p4V-0ucGMLW-16" value="public w3" style="rounded=1;whiteSpace=wrap;html=1;" vertex="1" parent="1">
          <mxGeometry x="630" y="430" width="100" height="20" as="geometry" />
        </mxCell>
        <mxCell id="jizsMmq97p4V-0ucGMLW-17" value="switch" style="rounded=1;whiteSpace=wrap;html=1;" vertex="1" parent="1">
          <mxGeometry x="630" y="450" width="100" height="20" as="geometry" />
        </mxCell>
        <mxCell id="jizsMmq97p4V-0ucGMLW-19" value="PUT&lt;div&gt;parties&lt;/div&gt;" style="ellipse;whiteSpace=wrap;html=1;" vertex="1" parent="1">
          <mxGeometry x="460" y="240" width="120" height="50" as="geometry" />
        </mxCell>
        <mxCell id="jizsMmq97p4V-0ucGMLW-21" value="POST&lt;div&gt;transfer&lt;/div&gt;" style="ellipse;whiteSpace=wrap;html=1;" vertex="1" parent="1">
          <mxGeometry x="150" y="160" width="120" height="50" as="geometry" />
        </mxCell>
        <mxCell id="jizsMmq97p4V-0ucGMLW-23" value="Error" style="ellipse;whiteSpace=wrap;html=1;" vertex="1" parent="1">
          <mxGeometry x="90" y="360" width="120" height="50" as="geometry" />
        </mxCell>
        <mxCell id="jizsMmq97p4V-0ucGMLW-26" style="edgeStyle=orthogonalEdgeStyle;rounded=0;orthogonalLoop=1;jettySize=auto;html=1;entryX=0;entryY=0.5;entryDx=0;entryDy=0;" edge="1" parent="1" source="jizsMmq97p4V-0ucGMLW-25" target="jizsMmq97p4V-0ucGMLW-1">
          <mxGeometry relative="1" as="geometry" />
        </mxCell>
        <mxCell id="jizsMmq97p4V-0ucGMLW-25" value="Ingress" style="rounded=1;whiteSpace=wrap;html=1;" vertex="1" parent="1">
          <mxGeometry x="70" y="80" width="120" height="60" as="geometry" />
        </mxCell>
        <mxCell id="jizsMmq97p4V-0ucGMLW-27" value="Egress" style="rounded=1;whiteSpace=wrap;html=1;" vertex="1" parent="1">
          <mxGeometry x="470" y="90" width="120" height="60" as="geometry" />
        </mxCell>
      </root>
    </mxGraphModel>
  </diagram>
</mxfile>
